<svg width="34" height="34" viewBox="0 0 34 34" fill="none" xmlns="http://www.w3.org/2000/svg">
<g clip-path="url(#clip0_103_171)">
<path d="M9.0732 13.3135H9.34688C10.4006 13.3135 11.2626 14.1756 11.2626 15.2293V24.8081C11.2626 25.8618 10.4006 26.7239 9.34688 26.7239H9.0732C8.01953 26.7239 7.15744 25.8618 7.15744 24.8081V15.2293C7.15744 14.1756 8.01953 13.3135 9.0732 13.3135ZM16.7363 7.56625C17.7899 7.56625 18.652 8.42835 18.652 9.48202V24.8081C18.652 25.8618 17.7899 26.7239 16.7363 26.7239C15.6826 26.7239 14.8205 25.8618 14.8205 24.8081V9.48202C14.8205 8.42835 15.6826 7.56625 16.7363 7.56625ZM24.3993 18.5135C25.453 18.5135 26.3151 19.3756 26.3151 20.4292V24.8081C26.3151 25.8618 25.453 26.7239 24.3993 26.7239C23.3456 26.7239 22.4836 25.8618 22.4836 24.8081V20.4292C22.4836 19.3756 23.3456 18.5135 24.3993 18.5135Z" fill="#4318FF"/>
</g>
<defs>
<clipPath id="clip0_103_171">
<rect width="32.8417" height="32.8417" fill="white" transform="translate(0.31543 0.724243)"/>
</clipPath>
</defs>
</svg>
