<svg width="24" height="24" viewBox="0 0 24 24" fill="none" xmlns="http://www.w3.org/2000/svg">
<path fill-rule="evenodd" clip-rule="evenodd" d="M16.4142 4C15.6332 3.21895 14.3668 3.21895 13.5858 4L5.58579 12C5.21071 12.3751 5 12.8838 5 13.4142V15C5 16.1046 5.89543 17 7 17H8.58579C9.11622 17 9.62493 16.7893 10 16.4142L18 8.41421C18.7811 7.63316 18.781 6.36684 18 5.58579L16.4142 4ZM7 13.4142L15 5.41421L16.5858 7L8.58579 15H7L7 13.4142ZM4 19C3.44772 19 3 19.4477 3 20C3 20.5523 3.44772 21 4 21H20C20.5523 21 21 20.5523 21 20C21 19.4477 20.5523 19 20 19H4Z" fill="currentColor"/>
</svg>
